<svg xmlns="http://www.w3.org/2000/svg" xmlns:xlink="http://www.w3.org/1999/xlink" width="500" zoomAndPan="magnify" viewBox="0 0 375 374.999991" height="500" preserveAspectRatio="xMidYMid meet" version="1.0"><defs><g/><clipPath id="c87eb7272d"><path d="M 104.308594 84 L 132 84 L 132 114 L 104.308594 114 Z M 104.308594 84 " clip-rule="nonzero"/></clipPath><clipPath id="faacc40473"><path d="M 131 194 L 157 194 L 157 220.816406 L 131 220.816406 Z M 131 194 " clip-rule="nonzero"/></clipPath><clipPath id="666488465e"><path d="M 130 194 L 159 194 L 159 220.816406 L 130 220.816406 Z M 130 194 " clip-rule="nonzero"/></clipPath><clipPath id="a6ee4a35a6"><path d="M 195 195 L 221 195 L 221 220.816406 L 195 220.816406 Z M 195 195 " clip-rule="nonzero"/></clipPath><clipPath id="fd6f32e691"><path d="M 193 195 L 222 195 L 222 220.816406 L 193 220.816406 Z M 193 195 " clip-rule="nonzero"/></clipPath><clipPath id="85f608d98d"><path d="M 183 57.855469 L 196 57.855469 L 196 69 L 183 69 Z M 183 57.855469 " clip-rule="nonzero"/></clipPath></defs><rect x="-37.5" width="450" fill="#ffffff" y="-37.499999" height="449.999989" fill-opacity="1"/><rect x="-37.5" width="450" fill="#f8f4e0" y="-37.499999" height="449.999989" fill-opacity="1"/><path fill="#ffce00" d="M 216.839844 176.960938 L 130.109375 176.960938 L 130.109375 111.839844 L 216.839844 111.839844 C 223.835938 111.839844 229.507812 117.511719 229.507812 124.507812 L 229.507812 164.296875 C 229.507812 171.292969 223.835938 176.960938 216.839844 176.960938 Z M 216.839844 176.960938 " fill-opacity="1" fill-rule="nonzero"/><path fill="#000000" d="M 166.15625 178.328125 L 128.742188 178.328125 L 128.742188 110.472656 L 171.617188 110.472656 C 172.367188 110.472656 172.984375 111.082031 172.984375 111.839844 C 172.984375 112.59375 172.375 113.207031 171.617188 113.207031 L 131.472656 113.207031 L 131.472656 175.601562 L 166.15625 175.601562 C 166.90625 175.601562 167.523438 176.214844 167.523438 176.96875 C 167.519531 177.71875 166.90625 178.328125 166.15625 178.328125 Z M 166.15625 178.328125 " fill-opacity="1" fill-rule="nonzero"/><path fill="#000000" d="M 223.464844 178.328125 L 171.617188 178.328125 C 170.867188 178.328125 170.25 177.71875 170.25 176.960938 C 170.25 176.210938 170.859375 175.59375 171.617188 175.59375 L 223.464844 175.59375 C 224.214844 175.59375 224.832031 176.203125 224.832031 176.960938 C 224.824219 177.71875 224.214844 178.328125 223.464844 178.328125 Z M 223.464844 178.328125 " fill-opacity="1" fill-rule="nonzero"/><path fill="#000000" d="M 229.507812 172.28125 C 228.753906 172.28125 228.136719 171.667969 228.136719 170.914062 L 228.136719 117.882812 C 228.136719 115.304688 226.039062 113.203125 223.457031 113.203125 L 211.523438 113.203125 C 210.769531 113.203125 210.15625 112.59375 210.15625 111.835938 C 210.15625 111.082031 210.765625 110.46875 211.523438 110.46875 L 223.457031 110.46875 C 227.546875 110.46875 230.867188 113.796875 230.867188 117.878906 L 230.867188 170.914062 C 230.875 171.667969 230.261719 172.28125 229.507812 172.28125 Z M 229.507812 172.28125 " fill-opacity="1" fill-rule="nonzero"/><path fill="#000000" d="M 201.929688 113.203125 L 181.273438 113.203125 C 180.523438 113.203125 179.90625 112.59375 179.90625 111.835938 C 179.90625 111.082031 180.515625 110.46875 181.273438 110.46875 L 201.929688 110.46875 C 202.679688 110.46875 203.296875 111.078125 203.296875 111.835938 C 203.292969 112.59375 202.679688 113.203125 201.929688 113.203125 Z M 201.929688 113.203125 " fill-opacity="1" fill-rule="nonzero"/><g clip-path="url(#c87eb7272d)"><path fill="#000000" d="M 130.109375 113.203125 C 129.359375 113.203125 128.742188 112.59375 128.742188 111.835938 L 128.742188 87.019531 L 105.675781 87.019531 C 104.921875 87.019531 104.308594 86.40625 104.308594 85.652344 C 104.308594 84.898438 104.921875 84.28125 105.675781 84.28125 L 131.480469 84.28125 L 131.480469 111.835938 C 131.472656 112.59375 130.863281 113.203125 130.109375 113.203125 Z M 130.109375 113.203125 " fill-opacity="1" fill-rule="nonzero"/></g><path fill="#000000" d="M 241.523438 191.359375 L 235.089844 191.359375 C 234.335938 191.359375 233.722656 190.75 233.722656 189.992188 C 233.722656 189.234375 234.332031 188.625 235.089844 188.625 L 241.523438 188.625 C 242.277344 188.625 242.890625 189.234375 242.890625 189.992188 C 242.890625 190.75 242.277344 191.359375 241.523438 191.359375 Z M 241.523438 191.359375 " fill-opacity="1" fill-rule="nonzero"/><path fill="#000000" d="M 223.464844 191.359375 L 201.929688 191.359375 C 201.175781 191.359375 200.5625 190.75 200.5625 189.992188 C 200.5625 189.234375 201.171875 188.625 201.929688 188.625 L 223.464844 188.625 C 224.214844 188.625 224.832031 189.234375 224.832031 189.992188 C 224.832031 190.75 224.214844 191.359375 223.464844 191.359375 Z M 223.464844 191.359375 " fill-opacity="1" fill-rule="nonzero"/><path fill="#000000" d="M 191.597656 191.359375 L 118.402344 191.359375 L 128.992188 176.183594 C 129.421875 175.5625 130.269531 175.414062 130.890625 175.84375 C 131.511719 176.277344 131.664062 177.125 131.230469 177.746094 L 123.640625 188.628906 L 191.605469 188.628906 C 192.355469 188.628906 192.972656 189.242188 192.972656 189.996094 C 192.972656 190.753906 192.355469 191.359375 191.597656 191.359375 Z M 191.597656 191.359375 " fill-opacity="1" fill-rule="nonzero"/><g clip-path="url(#faacc40473)"><path fill="#ffce00" d="M 144.328125 194.894531 C 147.691406 194.894531 150.753906 196.210938 153.015625 198.355469 C 153.605469 198.90625 154.132812 199.511719 154.601562 200.171875 C 154.832031 200.488281 155.042969 200.816406 155.238281 201.152344 C 156.339844 203.027344 156.96875 205.210938 156.96875 207.542969 C 156.96875 214.527344 151.304688 220.191406 144.320312 220.191406 C 137.335938 220.191406 131.679688 214.527344 131.679688 207.542969 C 131.679688 202.34375 134.816406 197.875 139.308594 195.933594 " fill-opacity="1" fill-rule="nonzero"/></g><g clip-path="url(#666488465e)"><path fill="#000000" d="M 144.328125 221.554688 C 136.601562 221.554688 130.316406 215.269531 130.316406 207.542969 C 130.316406 201.953125 133.632812 196.902344 138.761719 194.675781 C 139.457031 194.375 140.257812 194.695312 140.558594 195.386719 C 140.859375 196.078125 140.539062 196.878906 139.851562 197.179688 C 135.71875 198.96875 133.046875 203.035156 133.046875 207.539062 C 133.046875 213.761719 138.109375 218.820312 144.328125 218.820312 C 150.542969 218.820312 155.609375 213.757812 155.609375 207.539062 C 155.609375 206.789062 156.21875 206.171875 156.976562 206.171875 C 157.726562 206.171875 158.34375 206.78125 158.34375 207.539062 C 158.339844 215.269531 152.050781 221.554688 144.328125 221.554688 Z M 144.328125 221.554688 " fill-opacity="1" fill-rule="nonzero"/></g><g clip-path="url(#a6ee4a35a6)"><path fill="#ffce00" d="M 207.8125 195.929688 C 211.179688 195.929688 214.238281 197.242188 216.503906 199.386719 C 217.089844 199.941406 217.617188 200.546875 218.089844 201.207031 C 218.316406 201.519531 218.53125 201.851562 218.726562 202.183594 C 219.824219 204.0625 220.457031 206.246094 220.457031 208.578125 C 220.457031 215.5625 214.792969 221.226562 207.808594 221.226562 C 200.824219 221.226562 195.160156 215.5625 195.160156 208.578125 C 195.160156 203.378906 198.296875 198.90625 202.789062 196.964844 " fill-opacity="1" fill-rule="nonzero"/></g><g clip-path="url(#fd6f32e691)"><path fill="#000000" d="M 207.8125 222.59375 C 200.085938 222.59375 193.800781 216.308594 193.800781 208.582031 C 193.800781 202.992188 197.117188 197.941406 202.25 195.714844 C 202.941406 195.414062 203.742188 195.734375 204.042969 196.421875 C 204.34375 197.117188 204.023438 197.917969 203.335938 198.21875 C 199.203125 200.007812 196.53125 204.070312 196.53125 208.578125 C 196.53125 214.800781 201.59375 219.859375 207.8125 219.859375 C 214.035156 219.859375 219.09375 214.796875 219.09375 208.578125 C 219.09375 207.824219 219.703125 207.210938 220.460938 207.210938 C 221.21875 207.210938 221.828125 207.820312 221.828125 208.578125 C 221.828125 216.304688 215.542969 222.59375 207.8125 222.59375 Z M 207.8125 222.59375 " fill-opacity="1" fill-rule="nonzero"/></g><path fill="#000000" d="M 155.242188 202.515625 C 154.773438 202.515625 154.316406 202.273438 154.066406 201.839844 C 153.890625 201.539062 153.695312 201.25 153.496094 200.96875 C 153.082031 200.386719 152.601562 199.839844 152.082031 199.347656 C 149.976562 197.359375 147.226562 196.261719 144.332031 196.261719 C 143.578125 196.261719 142.964844 195.652344 142.964844 194.894531 C 142.964844 194.144531 143.574219 193.527344 144.332031 193.527344 C 147.929688 193.527344 151.347656 194.890625 153.957031 197.359375 C 154.601562 197.972656 155.195312 198.648438 155.714844 199.371094 C 155.964844 199.722656 156.203125 200.085938 156.421875 200.457031 C 156.804688 201.109375 156.585938 201.949219 155.9375 202.324219 C 155.714844 202.453125 155.476562 202.515625 155.242188 202.515625 Z M 155.242188 202.515625 " fill-opacity="1" fill-rule="nonzero"/><path fill="#000000" d="M 153.847656 164.597656 C 153.09375 164.597656 152.480469 163.988281 152.480469 163.230469 L 152.480469 125.546875 C 152.480469 124.792969 153.089844 124.179688 153.847656 124.179688 C 154.597656 124.179688 155.214844 124.789062 155.214844 125.546875 L 155.214844 163.230469 C 155.210938 163.988281 154.597656 164.597656 153.847656 164.597656 Z M 153.847656 164.597656 " fill-opacity="1" fill-rule="nonzero"/><path fill="#000000" d="M 171.617188 164.597656 C 170.867188 164.597656 170.25 163.988281 170.25 163.230469 L 170.25 125.546875 C 170.25 124.792969 170.859375 124.179688 171.617188 124.179688 C 172.367188 124.179688 172.984375 124.789062 172.984375 125.546875 L 172.984375 163.230469 C 172.984375 163.988281 172.367188 164.597656 171.617188 164.597656 Z M 171.617188 164.597656 " fill-opacity="1" fill-rule="nonzero"/><path fill="#000000" d="M 189.386719 164.597656 C 188.636719 164.597656 188.019531 163.988281 188.019531 163.230469 L 188.019531 125.546875 C 188.019531 124.792969 188.628906 124.179688 189.386719 124.179688 C 190.140625 124.179688 190.753906 124.789062 190.753906 125.546875 L 190.753906 163.230469 C 190.753906 163.988281 190.144531 164.597656 189.386719 164.597656 Z M 189.386719 164.597656 " fill-opacity="1" fill-rule="nonzero"/><path fill="#000000" d="M 207.164062 164.597656 C 206.410156 164.597656 205.792969 163.988281 205.792969 163.230469 L 205.792969 125.546875 C 205.792969 124.792969 206.40625 124.179688 207.164062 124.179688 C 207.914062 124.179688 208.53125 124.789062 208.53125 125.546875 L 208.53125 163.230469 C 208.523438 163.988281 207.914062 164.597656 207.164062 164.597656 Z M 207.164062 164.597656 " fill-opacity="1" fill-rule="nonzero"/><path fill="#000000" d="M 160.496094 86.335938 C 157.808594 86.335938 155.625 84.152344 155.625 81.464844 C 155.625 78.777344 157.808594 76.597656 160.496094 76.597656 C 163.183594 76.597656 165.367188 78.777344 165.367188 81.464844 C 165.367188 84.152344 163.183594 86.335938 160.496094 86.335938 Z M 160.496094 77.964844 C 158.566406 77.964844 156.996094 79.535156 156.996094 81.46875 C 156.996094 83.398438 158.566406 84.976562 160.496094 84.976562 C 162.425781 84.976562 164.003906 83.40625 164.003906 81.46875 C 164.003906 79.535156 162.429688 77.964844 160.496094 77.964844 Z M 160.496094 77.964844 " fill-opacity="1" fill-rule="nonzero"/><path fill="#000000" d="M 236.757812 104.433594 C 234.921875 104.433594 233.433594 102.945312 233.433594 101.113281 C 233.433594 99.277344 234.921875 97.789062 236.757812 97.789062 C 238.589844 97.789062 240.078125 99.277344 240.078125 101.113281 C 240.078125 102.945312 238.589844 104.433594 236.757812 104.433594 Z M 236.757812 99.15625 C 235.679688 99.15625 234.800781 100.035156 234.800781 101.113281 C 234.800781 102.1875 235.679688 103.066406 236.757812 103.066406 C 237.832031 103.066406 238.710938 102.1875 238.710938 101.113281 C 238.714844 100.035156 237.839844 99.15625 236.757812 99.15625 Z M 236.757812 99.15625 " fill-opacity="1" fill-rule="nonzero"/><path fill="#000000" d="M 241.523438 79.074219 C 239.691406 79.074219 238.203125 77.585938 238.203125 75.753906 C 238.203125 73.917969 239.691406 72.429688 241.523438 72.429688 C 243.359375 72.429688 244.847656 73.917969 244.847656 75.753906 C 244.847656 77.585938 243.351562 79.074219 241.523438 79.074219 Z M 241.523438 73.796875 C 240.449219 73.796875 239.570312 74.675781 239.570312 75.753906 C 239.570312 76.828125 240.449219 77.707031 241.523438 77.707031 C 242.601562 77.707031 243.484375 76.828125 243.484375 75.753906 C 243.480469 74.675781 242.601562 73.796875 241.523438 73.796875 Z M 241.523438 73.796875 " fill-opacity="1" fill-rule="nonzero"/><path fill="#ffce00" d="M 245.710938 146.246094 C 243.023438 146.246094 240.839844 144.0625 240.839844 141.375 C 240.839844 138.691406 243.023438 136.507812 245.710938 136.507812 C 248.398438 136.507812 250.578125 138.691406 250.578125 141.375 C 250.578125 144.0625 248.398438 146.246094 245.710938 146.246094 Z M 245.710938 137.875 C 243.78125 137.875 242.203125 139.445312 242.203125 141.375 C 242.203125 143.308594 243.773438 144.882812 245.710938 144.882812 C 247.644531 144.882812 249.214844 143.3125 249.214844 141.375 C 249.210938 139.445312 247.640625 137.875 245.710938 137.875 Z M 245.710938 137.875 " fill-opacity="1" fill-rule="nonzero"/><path fill="#ffce00" d="M 215.097656 80.011719 C 212.75 80.011719 210.839844 78.097656 210.839844 75.753906 C 210.839844 73.40625 212.75 71.492188 215.097656 71.492188 C 217.445312 71.492188 219.355469 73.40625 219.355469 75.753906 C 219.355469 78.097656 217.445312 80.011719 215.097656 80.011719 Z M 215.097656 72.863281 C 213.5 72.863281 212.207031 74.15625 212.207031 75.753906 C 212.207031 77.347656 213.5 78.640625 215.097656 78.640625 C 216.691406 78.640625 217.988281 77.347656 217.988281 75.753906 C 217.988281 74.160156 216.691406 72.863281 215.097656 72.863281 Z M 215.097656 72.863281 " fill-opacity="1" fill-rule="nonzero"/><path fill="#ffce00" d="M 191.476562 96.0625 C 191.292969 96.0625 191.113281 95.992188 190.976562 95.84375 C 190.722656 95.570312 190.734375 95.136719 191.011719 94.878906 L 198.382812 87.984375 C 198.660156 87.726562 199.09375 87.742188 199.347656 88.015625 C 199.605469 88.292969 199.589844 88.726562 199.316406 88.984375 L 191.941406 95.878906 C 191.8125 96 191.648438 96.0625 191.476562 96.0625 Z M 191.476562 96.0625 " fill-opacity="1" fill-rule="nonzero"/><path fill="#ffce00" d="M 198.855469 96.0625 C 198.675781 96.0625 198.5 95.996094 198.363281 95.859375 L 190.992188 88.308594 C 190.730469 88.035156 190.734375 87.605469 191.003906 87.34375 C 191.273438 87.082031 191.707031 87.085938 191.96875 87.351562 L 199.339844 94.90625 C 199.601562 95.175781 199.597656 95.609375 199.328125 95.871094 C 199.199219 95.996094 199.023438 96.0625 198.855469 96.0625 Z M 198.855469 96.0625 " fill-opacity="1" fill-rule="nonzero"/><path fill="#ffce00" d="M 261.421875 120.605469 L 262.09375 116.703125 L 259.261719 113.945312 L 263.175781 113.378906 L 264.925781 109.832031 L 266.675781 113.378906 L 270.589844 113.945312 L 267.757812 116.703125 L 268.425781 120.605469 L 264.925781 118.765625 Z M 264.925781 117.21875 L 266.613281 118.105469 L 266.292969 116.230469 L 267.65625 114.902344 L 265.769531 114.625 L 264.925781 112.917969 L 264.082031 114.625 L 262.195312 114.902344 L 263.558594 116.230469 L 263.238281 118.105469 Z M 264.925781 117.21875 " fill-opacity="1" fill-rule="nonzero"/><g clip-path="url(#85f608d98d)"><path fill="#ffce00" d="M 192.890625 68.695312 L 189.386719 66.855469 L 185.886719 68.695312 L 186.554688 64.796875 L 183.722656 62.035156 L 187.636719 61.46875 L 189.386719 57.921875 L 191.136719 61.46875 L 195.050781 62.035156 L 192.21875 64.796875 Z M 189.386719 65.316406 L 191.074219 66.203125 L 190.753906 64.324219 L 192.117188 62.996094 L 190.230469 62.71875 L 189.386719 61.011719 L 188.542969 62.71875 L 186.65625 62.996094 L 188.019531 64.324219 L 187.699219 66.203125 Z M 189.386719 65.316406 " fill-opacity="1" fill-rule="nonzero"/></g><g fill="#000000" fill-opacity="1"><g transform="translate(9.195287, 274.407726)"><g><path d="M 11.9375 -28.9375 L 11.9375 -21.671875 L 23.65625 -21.671875 L 23.65625 -14.90625 L 11.9375 -14.90625 L 11.9375 -7.015625 L 25.203125 -7.015625 L 25.203125 0 L 3.171875 0 L 3.171875 -35.953125 L 25.203125 -35.953125 L 25.203125 -28.9375 Z M 11.9375 -28.9375 "/></g></g></g><g fill="#000000" fill-opacity="1"><g transform="translate(51.70606, 274.407726)"><g><path d="M 25.5625 -6.34375 L 12.140625 -6.34375 L 9.984375 0 L 0.8125 0 L 13.828125 -35.953125 L 23.96875 -35.953125 L 36.984375 0 L 27.703125 0 Z M 23.296875 -13.109375 L 18.84375 -26.28125 L 14.4375 -13.109375 Z M 23.296875 -13.109375 "/></g></g></g><g fill="#000000" fill-opacity="1"><g transform="translate(104.255493, 274.407726)"><g><path d="M 16.1875 0.359375 C 13.550781 0.359375 11.191406 -0.0664062 9.109375 -0.921875 C 7.035156 -1.773438 5.375 -3.035156 4.125 -4.703125 C 2.875 -6.378906 2.21875 -8.394531 2.15625 -10.75 L 11.46875 -10.75 C 11.601562 -9.425781 12.0625 -8.410156 12.84375 -7.703125 C 13.632812 -7.003906 14.660156 -6.65625 15.921875 -6.65625 C 17.222656 -6.65625 18.25 -6.953125 19 -7.546875 C 19.75 -8.148438 20.125 -8.976562 20.125 -10.03125 C 20.125 -10.925781 19.828125 -11.660156 19.234375 -12.234375 C 18.640625 -12.816406 17.90625 -13.296875 17.03125 -13.671875 C 16.15625 -14.046875 14.914062 -14.472656 13.3125 -14.953125 C 10.988281 -15.671875 9.09375 -16.390625 7.625 -17.109375 C 6.15625 -17.828125 4.890625 -18.882812 3.828125 -20.28125 C 2.773438 -21.675781 2.25 -23.503906 2.25 -25.765625 C 2.25 -29.109375 3.460938 -31.726562 5.890625 -33.625 C 8.316406 -35.519531 11.472656 -36.46875 15.359375 -36.46875 C 19.328125 -36.46875 22.519531 -35.519531 24.9375 -33.625 C 27.363281 -31.726562 28.664062 -29.09375 28.84375 -25.71875 L 19.359375 -25.71875 C 19.296875 -26.875 18.867188 -27.785156 18.078125 -28.453125 C 17.296875 -29.117188 16.289062 -29.453125 15.0625 -29.453125 C 14 -29.453125 13.144531 -29.171875 12.5 -28.609375 C 11.851562 -28.046875 11.53125 -27.234375 11.53125 -26.171875 C 11.53125 -25.015625 12.070312 -24.109375 13.15625 -23.453125 C 14.25 -22.804688 15.957031 -22.109375 18.28125 -21.359375 C 20.601562 -20.578125 22.488281 -19.828125 23.9375 -19.109375 C 25.394531 -18.390625 26.648438 -17.347656 27.703125 -15.984375 C 28.765625 -14.617188 29.296875 -12.859375 29.296875 -10.703125 C 29.296875 -8.648438 28.773438 -6.785156 27.734375 -5.109375 C 26.691406 -3.441406 25.179688 -2.113281 23.203125 -1.125 C 21.222656 -0.132812 18.882812 0.359375 16.1875 0.359375 Z M 16.1875 0.359375 "/></g></g></g><g fill="#000000" fill-opacity="1"><g transform="translate(150.556359, 274.407726)"><g><path d="M 34.015625 -35.953125 L 21.5625 -11.875 L 21.5625 0 L 12.796875 0 L 12.796875 -11.875 L 0.359375 -35.953125 L 10.296875 -35.953125 L 17.265625 -20.890625 L 24.171875 -35.953125 Z M 34.015625 -35.953125 "/></g></g></g><g fill="#000000" fill-opacity="1"><g transform="translate(199.727201, 274.407726)"><g/></g></g><g fill="#000000" fill-opacity="1"><g transform="translate(225.38728, 274.407726)"><g/></g></g><g fill="#ffce00" fill-opacity="1"><g transform="translate(28.192078, 312.329363)"><g><path d="M 9.371094 -2.808594 L 4.335938 -2.808594 L 4.335938 -5.632812 L 9.164062 -5.632812 L 9.164062 -8.441406 L 4.335938 -8.441406 L 4.335938 -11.226562 L 9.371094 -11.226562 L 9.371094 -14.035156 L 1.238281 -14.035156 L 1.238281 0 L 9.371094 0 Z M 9.371094 -2.808594 "/></g></g></g><g fill="#ffce00" fill-opacity="1"><g transform="translate(52.957975, 312.329363)"><g><path d="M 8.875 -5.367188 L 5.324219 -5.367188 L 7.097656 -10.359375 Z M 14.117188 0 L 8.421875 -14.035156 L 5.800781 -14.035156 L 0.101562 0 L 3.425781 0 L 4.4375 -2.828125 L 9.78125 -2.828125 L 10.792969 0 Z M 14.117188 0 "/></g></g></g><g fill="#ffce00" fill-opacity="1"><g transform="translate(81.335565, 312.329363)"><g><path d="M 6.6875 -2.1875 C 5.160156 -2.1875 3.839844 -2.953125 3.757812 -4.621094 L 0.621094 -4.621094 C 0.640625 -1.195312 3.46875 0.332031 6.5625 0.332031 C 9.433594 0.332031 12.382812 -0.886719 12.382812 -4.191406 C 12.382812 -9.535156 4.273438 -7.738281 4.273438 -10.238281 C 4.273438 -11.289062 5.488281 -11.703125 6.355469 -11.703125 C 7.90625 -11.703125 8.75 -11.226562 8.914062 -9.761719 L 11.910156 -9.761719 C 11.804688 -12.960938 9.203125 -14.242188 6.316406 -14.242188 C 3.757812 -14.242188 1.074219 -12.878906 1.074219 -9.988281 C 1.074219 -4.808594 9.183594 -6.5625 9.183594 -3.839844 C 9.183594 -2.578125 7.65625 -2.1875 6.6875 -2.1875 Z M 6.6875 -2.1875 "/></g></g></g><g fill="#ffce00" fill-opacity="1"><g transform="translate(108.495511, 312.329363)"><g><path d="M 5.34375 0 L 8.441406 0 L 8.441406 -6.707031 L 13.621094 -14.035156 L 9.925781 -14.035156 L 6.894531 -9.183594 L 3.859375 -14.035156 L 0.164062 -14.035156 L 5.34375 -6.707031 Z M 5.34375 0 "/></g></g></g><g fill="#000000" fill-opacity="1"><g transform="translate(136.461918, 312.329363)"><g/></g></g><g fill="#000000" fill-opacity="1"><g transform="translate(155.779284, 312.329363)"><g><path d="M 6.6875 -2.1875 C 5.160156 -2.1875 3.839844 -2.953125 3.757812 -4.621094 L 0.621094 -4.621094 C 0.640625 -1.195312 3.46875 0.332031 6.5625 0.332031 C 9.433594 0.332031 12.382812 -0.886719 12.382812 -4.191406 C 12.382812 -9.535156 4.273438 -7.738281 4.273438 -10.238281 C 4.273438 -11.289062 5.488281 -11.703125 6.355469 -11.703125 C 7.90625 -11.703125 8.75 -11.226562 8.914062 -9.761719 L 11.910156 -9.761719 C 11.804688 -12.960938 9.203125 -14.242188 6.316406 -14.242188 C 3.757812 -14.242188 1.074219 -12.878906 1.074219 -9.988281 C 1.074219 -4.808594 9.183594 -6.5625 9.183594 -3.839844 C 9.183594 -2.578125 7.65625 -2.1875 6.6875 -2.1875 Z M 6.6875 -2.1875 "/></g></g></g><g fill="#000000" fill-opacity="1"><g transform="translate(182.939234, 312.329363)"><g><path d="M 12.074219 -7.039062 C 12.074219 -4.871094 10.113281 -2.890625 7.945312 -2.890625 C 5.777344 -2.890625 3.816406 -4.871094 3.816406 -7.039062 C 3.816406 -9.203125 5.777344 -11.164062 7.945312 -11.164062 C 10.113281 -11.164062 12.074219 -9.203125 12.074219 -7.039062 Z M 15.167969 -7.015625 C 15.167969 -10.898438 11.824219 -14.242188 7.945312 -14.242188 C 4.066406 -14.242188 0.722656 -10.898438 0.722656 -7.015625 C 0.722656 -3.136719 4.066406 0.207031 7.945312 0.207031 C 11.824219 0.207031 15.167969 -3.136719 15.167969 -7.015625 Z M 15.167969 -7.015625 "/></g></g></g><g fill="#000000" fill-opacity="1"><g transform="translate(212.988539, 312.329363)"><g><path d="M 1.238281 0 L 9.371094 0 L 9.371094 -2.808594 L 4.335938 -2.808594 L 4.335938 -14.035156 L 1.238281 -14.035156 Z M 1.238281 0 "/></g></g></g><g fill="#000000" fill-opacity="1"><g transform="translate(237.23848, 312.329363)"><g><path d="M 9.433594 -14.035156 L 9.433594 -5.921875 C 9.433594 -3.984375 8.855469 -2.890625 6.726562 -2.890625 C 4.621094 -2.890625 4.023438 -3.984375 4.023438 -5.921875 L 4.023438 -14.035156 L 0.929688 -14.035156 L 0.929688 -5.46875 C 0.929688 -1.734375 3.074219 0.207031 6.726562 0.207031 C 10.382812 0.207031 12.527344 -1.734375 12.527344 -5.46875 L 12.527344 -14.035156 Z M 9.433594 -14.035156 "/></g></g></g><g fill="#000000" fill-opacity="1"><g transform="translate(264.85246, 312.329363)"><g><path d="M 7.203125 -11.226562 L 11.207031 -11.226562 L 11.207031 -14.035156 L 0.101562 -14.035156 L 0.101562 -11.226562 L 4.105469 -11.226562 L 4.105469 0 L 7.203125 0 Z M 7.203125 -11.226562 "/></g></g></g><g fill="#000000" fill-opacity="1"><g transform="translate(290.320067, 312.329363)"><g><path d="M 4.335938 0 L 4.335938 -14.035156 L 1.238281 -14.035156 L 1.238281 0 Z M 4.335938 0 "/></g></g></g><g fill="#000000" fill-opacity="1"><g transform="translate(310.050209, 312.329363)"><g><path d="M 12.074219 -7.039062 C 12.074219 -4.871094 10.113281 -2.890625 7.945312 -2.890625 C 5.777344 -2.890625 3.816406 -4.871094 3.816406 -7.039062 C 3.816406 -9.203125 5.777344 -11.164062 7.945312 -11.164062 C 10.113281 -11.164062 12.074219 -9.203125 12.074219 -7.039062 Z M 15.167969 -7.015625 C 15.167969 -10.898438 11.824219 -14.242188 7.945312 -14.242188 C 4.066406 -14.242188 0.722656 -10.898438 0.722656 -7.015625 C 0.722656 -3.136719 4.066406 0.207031 7.945312 0.207031 C 11.824219 0.207031 15.167969 -3.136719 15.167969 -7.015625 Z M 15.167969 -7.015625 "/></g></g></g><g fill="#000000" fill-opacity="1"><g transform="translate(340.099522, 312.329363)"><g><path d="M 12.257812 0 L 12.257812 -14.035156 L 9.164062 -14.035156 L 9.164062 -5.285156 L 4.335938 -14.035156 L 1.238281 -14.035156 L 1.238281 0 L 4.335938 0 L 4.335938 -8.75 L 9.164062 0 Z M 12.257812 0 "/></g></g></g><path stroke-linecap="butt" transform="matrix(4.268128, 0, 0, 4.268128, 220.260561, 227.458315)" fill="none" stroke-linejoin="miter" d="M 6.766447 6.67893 C 7.255171 6.784179 7.646883 7.027626 7.941582 7.408355 C 8.238111 7.787254 8.386375 8.221065 8.386375 8.708874 C 8.386375 9.411758 8.140183 9.970039 7.648713 10.381885 C 7.156328 10.793731 6.469918 10.999654 5.588567 10.999654 L 1.66596 10.999654 L 1.66596 2.576941 L 5.456776 2.576941 C 6.314331 2.576941 6.984268 2.773712 7.466586 3.166339 C 7.950734 3.55622 8.193265 4.087959 8.193265 4.759726 C 8.193265 5.255772 8.063305 5.667619 7.803384 5.99618 C 7.544379 6.323827 7.198428 6.551715 6.766447 6.67893 Z M 3.716955 5.984282 L 5.061404 5.984282 C 5.397287 5.984282 5.655377 5.91015 5.834759 5.761886 C 6.015056 5.613621 6.104747 5.3958 6.104747 5.108423 C 6.104747 4.819215 6.015056 4.599564 5.834759 4.449469 C 5.655377 4.296628 5.397287 4.220665 5.061404 4.220665 L 3.716955 4.220665 Z M 5.228888 9.344948 C 5.573923 9.344948 5.841166 9.266239 6.027869 9.110653 C 6.215488 8.954151 6.309755 8.727178 6.309755 8.430649 C 6.309755 8.13595 6.210912 7.904401 6.013226 7.736002 C 5.818285 7.568518 5.549213 7.484318 5.205092 7.484318 L 3.716955 7.484318 L 3.716955 9.344948 Z M 15.957939 2.576941 L 15.957939 7.616109 C 15.957939 8.120392 16.081493 8.508442 16.329516 8.782091 C 16.577539 9.05391 16.941794 9.189361 17.422282 9.189361 C 17.902769 9.189361 18.2716 9.05391 18.526945 8.782091 C 18.783204 8.508442 18.910419 8.120392 18.910419 7.616109 L 18.910419 2.576941 L 20.961413 2.576941 L 20.961413 7.604211 C 20.961413 8.356517 20.801251 8.99259 20.480926 9.511517 C 20.160601 10.031358 19.730451 10.423985 19.189559 10.689397 C 18.650498 10.952978 18.049203 11.084769 17.387503 11.084769 C 16.723058 11.084769 16.128169 10.954809 15.602836 10.694888 C 15.079334 10.433137 14.665657 10.041425 14.360891 9.517923 C 14.057956 8.994421 13.906945 8.356517 13.906945 7.604211 L 13.906945 2.576941 Z M 33.994973 2.576941 L 31.076357 8.216489 L 31.076357 10.999654 L 29.026278 10.999654 L 29.026278 8.216489 L 26.111322 2.576941 L 28.43688 2.576941 L 30.068706 6.104176 L 31.688635 2.576941 Z M 33.994973 2.576941 " stroke="#000000" stroke-width="1.14" stroke-opacity="1" stroke-miterlimit="4"/><g fill="#ffce00" fill-opacity="1"><g transform="translate(224.195242, 274.407726)"><g><path d="M 24.9375 -18.4375 C 27.019531 -17.988281 28.691406 -16.953125 29.953125 -15.328125 C 31.222656 -13.710938 31.859375 -11.863281 31.859375 -9.78125 C 31.859375 -6.78125 30.804688 -4.398438 28.703125 -2.640625 C 26.609375 -0.878906 23.679688 0 19.921875 0 L 3.171875 0 L 3.171875 -35.953125 L 19.359375 -35.953125 C 23.015625 -35.953125 25.875 -35.113281 27.9375 -33.4375 C 30 -31.769531 31.03125 -29.503906 31.03125 -26.640625 C 31.03125 -24.515625 30.472656 -22.753906 29.359375 -21.359375 C 28.253906 -19.960938 26.78125 -18.988281 24.9375 -18.4375 Z M 11.9375 -21.40625 L 17.671875 -21.40625 C 19.109375 -21.40625 20.207031 -21.71875 20.96875 -22.34375 C 21.738281 -22.976562 22.125 -23.910156 22.125 -25.140625 C 22.125 -26.378906 21.738281 -27.320312 20.96875 -27.96875 C 20.207031 -28.613281 19.109375 -28.9375 17.671875 -28.9375 L 11.9375 -28.9375 Z M 18.390625 -7.0625 C 19.859375 -7.0625 20.992188 -7.394531 21.796875 -8.0625 C 22.597656 -8.726562 23 -9.691406 23 -10.953125 C 23 -12.222656 22.578125 -13.210938 21.734375 -13.921875 C 20.898438 -14.640625 19.75 -15 18.28125 -15 L 11.9375 -15 L 11.9375 -7.0625 Z M 18.390625 -7.0625 "/></g></g></g><g fill="#ffce00" fill-opacity="1"><g transform="translate(276.591001, 274.407726)"><g><path d="M 11.78125 -35.953125 L 11.78125 -14.4375 C 11.78125 -12.289062 12.304688 -10.632812 13.359375 -9.46875 C 14.421875 -8.3125 15.976562 -7.734375 18.03125 -7.734375 C 20.082031 -7.734375 21.648438 -8.3125 22.734375 -9.46875 C 23.828125 -10.632812 24.375 -12.289062 24.375 -14.4375 L 24.375 -35.953125 L 33.140625 -35.953125 L 33.140625 -14.5 C 33.140625 -11.289062 32.457031 -8.570312 31.09375 -6.34375 C 29.726562 -4.125 27.890625 -2.453125 25.578125 -1.328125 C 23.273438 -0.203125 20.707031 0.359375 17.875 0.359375 C 15.039062 0.359375 12.503906 -0.191406 10.265625 -1.296875 C 8.035156 -2.410156 6.269531 -4.085938 4.96875 -6.328125 C 3.664062 -8.566406 3.015625 -11.289062 3.015625 -14.5 L 3.015625 -35.953125 Z M 11.78125 -35.953125 "/></g></g></g><g fill="#ffce00" fill-opacity="1"><g transform="translate(331.342774, 274.407726)"><g><path d="M 34.015625 -35.953125 L 21.5625 -11.875 L 21.5625 0 L 12.796875 0 L 12.796875 -11.875 L 0.359375 -35.953125 L 10.296875 -35.953125 L 17.265625 -20.890625 L 24.171875 -35.953125 Z M 34.015625 -35.953125 "/></g></g></g></svg>