<svg xmlns="http://www.w3.org/2000/svg" xmlns:xlink="http://www.w3.org/1999/xlink" width="100" zoomAndPan="magnify" viewBox="0 0 75 74.999997" height="100" preserveAspectRatio="xMidYMid meet" version="1.0"><defs><g/><clipPath id="9652d4fe61"><path d="M 20.441406 16 L 27 16 L 27 23 L 20.441406 23 Z M 20.441406 16 " clip-rule="nonzero"/></clipPath><clipPath id="b258b10985"><path d="M 26 39 L 32 39 L 32 44.332031 L 26 44.332031 Z M 26 39 " clip-rule="nonzero"/></clipPath><clipPath id="617c7940e0"><path d="M 25 38 L 32 38 L 32 44.332031 L 25 44.332031 Z M 25 38 " clip-rule="nonzero"/></clipPath><clipPath id="dd3063591b"><path d="M 39 39 L 45 39 L 45 44.332031 L 39 44.332031 Z M 39 39 " clip-rule="nonzero"/></clipPath><clipPath id="a14197a907"><path d="M 38 39 L 45 39 L 45 44.332031 L 38 44.332031 Z M 38 39 " clip-rule="nonzero"/></clipPath><clipPath id="dc041e1f9a"><path d="M 52 21 L 54.902344 21 L 54.902344 24 L 52 24 Z M 52 21 " clip-rule="nonzero"/></clipPath><clipPath id="a4ac84d55c"><path d="M 36 10.914062 L 40 10.914062 L 40 14 L 36 14 Z M 36 10.914062 " clip-rule="nonzero"/></clipPath></defs><path fill="#ffce00" d="M 43.515625 35.339844 L 25.730469 35.339844 L 25.730469 21.984375 L 43.515625 21.984375 C 44.953125 21.984375 46.113281 23.148438 46.113281 24.582031 L 46.113281 32.742188 C 46.113281 34.175781 44.953125 35.339844 43.515625 35.339844 Z M 43.515625 35.339844 " fill-opacity="1" fill-rule="nonzero"/><path fill="#000000" d="M 33.121094 35.621094 L 25.449219 35.621094 L 25.449219 21.703125 L 34.242188 21.703125 C 34.398438 21.703125 34.523438 21.828125 34.523438 21.984375 C 34.523438 22.140625 34.398438 22.265625 34.242188 22.265625 L 26.011719 22.265625 L 26.011719 35.058594 L 33.121094 35.058594 C 33.277344 35.058594 33.402344 35.1875 33.402344 35.339844 C 33.402344 35.492188 33.277344 35.621094 33.121094 35.621094 Z M 33.121094 35.621094 " fill-opacity="1" fill-rule="nonzero"/><path fill="#000000" d="M 44.875 35.621094 L 34.242188 35.621094 C 34.089844 35.621094 33.960938 35.492188 33.960938 35.339844 C 33.960938 35.183594 34.085938 35.058594 34.242188 35.058594 L 44.875 35.058594 C 45.027344 35.058594 45.15625 35.183594 45.15625 35.339844 C 45.15625 35.492188 45.027344 35.621094 44.875 35.621094 Z M 44.875 35.621094 " fill-opacity="1" fill-rule="nonzero"/><path fill="#000000" d="M 46.113281 34.378906 C 45.960938 34.378906 45.832031 34.253906 45.832031 34.097656 L 45.832031 23.222656 C 45.832031 22.695312 45.402344 22.265625 44.875 22.265625 L 42.425781 22.265625 C 42.273438 22.265625 42.144531 22.140625 42.144531 21.984375 C 42.144531 21.828125 42.269531 21.703125 42.425781 21.703125 L 44.875 21.703125 C 45.710938 21.703125 46.394531 22.386719 46.394531 23.222656 L 46.394531 34.097656 C 46.394531 34.253906 46.269531 34.378906 46.113281 34.378906 Z M 46.113281 34.378906 " fill-opacity="1" fill-rule="nonzero"/><path fill="#000000" d="M 40.460938 22.265625 L 36.222656 22.265625 C 36.070312 22.265625 35.941406 22.140625 35.941406 21.984375 C 35.941406 21.828125 36.066406 21.703125 36.222656 21.703125 L 40.460938 21.703125 C 40.613281 21.703125 40.738281 21.828125 40.738281 21.984375 C 40.738281 22.140625 40.613281 22.265625 40.460938 22.265625 Z M 40.460938 22.265625 " fill-opacity="1" fill-rule="nonzero"/><g clip-path="url(#9652d4fe61)"><path fill="#000000" d="M 25.730469 22.265625 C 25.578125 22.265625 25.449219 22.140625 25.449219 21.984375 L 25.449219 16.894531 L 20.71875 16.894531 C 20.566406 16.894531 20.441406 16.769531 20.441406 16.613281 C 20.441406 16.460938 20.566406 16.332031 20.71875 16.332031 L 26.011719 16.332031 L 26.011719 21.984375 C 26.011719 22.140625 25.886719 22.265625 25.730469 22.265625 Z M 25.730469 22.265625 " fill-opacity="1" fill-rule="nonzero"/></g><path fill="#000000" d="M 48.578125 38.292969 L 47.257812 38.292969 C 47.105469 38.292969 46.976562 38.167969 46.976562 38.011719 C 46.976562 37.855469 47.105469 37.730469 47.257812 37.730469 L 48.578125 37.730469 C 48.734375 37.730469 48.859375 37.855469 48.859375 38.011719 C 48.859375 38.167969 48.734375 38.292969 48.578125 38.292969 Z M 48.578125 38.292969 " fill-opacity="1" fill-rule="nonzero"/><path fill="#000000" d="M 44.875 38.292969 L 40.460938 38.292969 C 40.304688 38.292969 40.179688 38.167969 40.179688 38.011719 C 40.179688 37.855469 40.304688 37.730469 40.460938 37.730469 L 44.875 37.730469 C 45.027344 37.730469 45.15625 37.855469 45.15625 38.011719 C 45.15625 38.167969 45.027344 38.292969 44.875 38.292969 Z M 44.875 38.292969 " fill-opacity="1" fill-rule="nonzero"/><path fill="#000000" d="M 38.339844 38.292969 L 23.332031 38.292969 L 25.5 35.179688 C 25.589844 35.050781 25.765625 35.019531 25.890625 35.109375 C 26.019531 35.199219 26.050781 35.371094 25.960938 35.5 L 24.40625 37.730469 L 38.339844 37.730469 C 38.496094 37.730469 38.621094 37.855469 38.621094 38.011719 C 38.621094 38.167969 38.496094 38.292969 38.339844 38.292969 Z M 38.339844 38.292969 " fill-opacity="1" fill-rule="nonzero"/><g clip-path="url(#b258b10985)"><path fill="#ffce00" d="M 28.644531 39.015625 C 29.335938 39.015625 29.964844 39.285156 30.429688 39.726562 C 30.550781 39.839844 30.65625 39.964844 30.753906 40.097656 C 30.800781 40.164062 30.84375 40.230469 30.882812 40.300781 C 31.109375 40.683594 31.238281 41.132812 31.238281 41.609375 C 31.238281 43.042969 30.078125 44.203125 28.644531 44.203125 C 27.214844 44.203125 26.050781 43.042969 26.050781 41.609375 C 26.050781 40.542969 26.695312 39.628906 27.617188 39.230469 " fill-opacity="1" fill-rule="nonzero"/></g><g clip-path="url(#617c7940e0)"><path fill="#000000" d="M 28.644531 44.484375 C 27.0625 44.484375 25.773438 43.195312 25.773438 41.609375 C 25.773438 40.464844 26.453125 39.429688 27.503906 38.972656 C 27.648438 38.910156 27.8125 38.976562 27.875 39.117188 C 27.933594 39.257812 27.871094 39.421875 27.726562 39.484375 C 26.882812 39.851562 26.332031 40.6875 26.332031 41.609375 C 26.332031 42.886719 27.371094 43.921875 28.644531 43.921875 C 29.921875 43.921875 30.960938 42.882812 30.960938 41.609375 C 30.960938 41.457031 31.085938 41.328125 31.242188 41.328125 C 31.394531 41.328125 31.519531 41.453125 31.519531 41.609375 C 31.519531 43.195312 30.230469 44.484375 28.644531 44.484375 Z M 28.644531 44.484375 " fill-opacity="1" fill-rule="nonzero"/></g><g clip-path="url(#dd3063591b)"><path fill="#ffce00" d="M 41.664062 39.226562 C 42.355469 39.226562 42.984375 39.496094 43.449219 39.9375 C 43.566406 40.050781 43.675781 40.175781 43.773438 40.3125 C 43.820312 40.375 43.863281 40.441406 43.902344 40.511719 C 44.128906 40.894531 44.257812 41.34375 44.257812 41.824219 C 44.257812 43.253906 43.097656 44.417969 41.664062 44.417969 C 40.230469 44.417969 39.070312 43.253906 39.070312 41.824219 C 39.070312 40.757812 39.714844 39.839844 40.636719 39.441406 " fill-opacity="1" fill-rule="nonzero"/></g><g clip-path="url(#a14197a907)"><path fill="#000000" d="M 41.664062 44.695312 C 40.082031 44.695312 38.792969 43.40625 38.792969 41.824219 C 38.792969 40.675781 39.472656 39.640625 40.523438 39.183594 C 40.667969 39.125 40.832031 39.1875 40.894531 39.328125 C 40.953125 39.472656 40.886719 39.636719 40.746094 39.699219 C 39.898438 40.066406 39.351562 40.898438 39.351562 41.824219 C 39.351562 43.097656 40.390625 44.136719 41.664062 44.136719 C 42.941406 44.136719 43.980469 43.097656 43.980469 41.824219 C 43.980469 41.667969 44.105469 41.542969 44.257812 41.542969 C 44.414062 41.542969 44.539062 41.667969 44.539062 41.824219 C 44.539062 43.40625 43.25 44.695312 41.664062 44.695312 Z M 41.664062 44.695312 " fill-opacity="1" fill-rule="nonzero"/></g><path fill="#000000" d="M 30.886719 40.578125 C 30.789062 40.578125 30.695312 40.53125 30.644531 40.441406 C 30.609375 40.378906 30.566406 40.320312 30.527344 40.261719 C 30.441406 40.140625 30.34375 40.03125 30.238281 39.929688 C 29.804688 39.523438 29.242188 39.296875 28.648438 39.296875 C 28.492188 39.296875 28.367188 39.171875 28.367188 39.015625 C 28.367188 38.863281 28.492188 38.734375 28.648438 38.734375 C 29.386719 38.734375 30.085938 39.015625 30.621094 39.523438 C 30.753906 39.648438 30.875 39.785156 30.980469 39.933594 C 31.035156 40.007812 31.082031 40.082031 31.125 40.15625 C 31.207031 40.289062 31.160156 40.460938 31.027344 40.539062 C 30.980469 40.566406 30.933594 40.578125 30.886719 40.578125 Z M 30.886719 40.578125 " fill-opacity="1" fill-rule="nonzero"/><path fill="#000000" d="M 30.597656 32.804688 C 30.445312 32.804688 30.316406 32.679688 30.316406 32.523438 L 30.316406 24.796875 C 30.316406 24.640625 30.445312 24.515625 30.597656 24.515625 C 30.753906 24.515625 30.878906 24.640625 30.878906 24.796875 L 30.878906 32.523438 C 30.878906 32.679688 30.753906 32.804688 30.597656 32.804688 Z M 30.597656 32.804688 " fill-opacity="1" fill-rule="nonzero"/><path fill="#000000" d="M 34.242188 32.804688 C 34.089844 32.804688 33.960938 32.679688 33.960938 32.523438 L 33.960938 24.796875 C 33.960938 24.640625 34.085938 24.515625 34.242188 24.515625 C 34.398438 24.515625 34.523438 24.640625 34.523438 24.796875 L 34.523438 32.523438 C 34.523438 32.679688 34.398438 32.804688 34.242188 32.804688 Z M 34.242188 32.804688 " fill-opacity="1" fill-rule="nonzero"/><path fill="#000000" d="M 37.886719 32.804688 C 37.734375 32.804688 37.605469 32.679688 37.605469 32.523438 L 37.605469 24.796875 C 37.605469 24.640625 37.730469 24.515625 37.886719 24.515625 C 38.042969 24.515625 38.167969 24.640625 38.167969 24.796875 L 38.167969 32.523438 C 38.167969 32.679688 38.042969 32.804688 37.886719 32.804688 Z M 37.886719 32.804688 " fill-opacity="1" fill-rule="nonzero"/><path fill="#000000" d="M 41.53125 32.804688 C 41.378906 32.804688 41.25 32.679688 41.25 32.523438 L 41.25 24.796875 C 41.25 24.640625 41.378906 24.515625 41.53125 24.515625 C 41.6875 24.515625 41.8125 24.640625 41.8125 24.796875 L 41.8125 32.523438 C 41.8125 32.679688 41.6875 32.804688 41.53125 32.804688 Z M 41.53125 32.804688 " fill-opacity="1" fill-rule="nonzero"/><path fill="#000000" d="M 31.960938 16.753906 C 31.410156 16.753906 30.964844 16.304688 30.964844 15.753906 C 30.964844 15.203125 31.410156 14.757812 31.960938 14.757812 C 32.511719 14.757812 32.960938 15.203125 32.960938 15.753906 C 32.960938 16.304688 32.511719 16.753906 31.960938 16.753906 Z M 31.960938 15.039062 C 31.566406 15.039062 31.246094 15.359375 31.246094 15.757812 C 31.246094 16.152344 31.566406 16.476562 31.960938 16.476562 C 32.359375 16.476562 32.679688 16.152344 32.679688 15.757812 C 32.679688 15.359375 32.359375 15.039062 31.960938 15.039062 Z M 31.960938 15.039062 " fill-opacity="1" fill-rule="nonzero"/><path fill="#000000" d="M 47.601562 20.464844 C 47.226562 20.464844 46.917969 20.160156 46.917969 19.785156 C 46.917969 19.410156 47.226562 19.101562 47.601562 19.101562 C 47.976562 19.101562 48.28125 19.410156 48.28125 19.785156 C 48.28125 20.160156 47.976562 20.464844 47.601562 20.464844 Z M 47.601562 19.382812 C 47.378906 19.382812 47.199219 19.5625 47.199219 19.785156 C 47.199219 20.003906 47.378906 20.183594 47.601562 20.183594 C 47.820312 20.183594 48 20.003906 48 19.785156 C 48.003906 19.5625 47.824219 19.382812 47.601562 19.382812 Z M 47.601562 19.382812 " fill-opacity="1" fill-rule="nonzero"/><path fill="#000000" d="M 48.578125 15.265625 C 48.203125 15.265625 47.898438 14.960938 47.898438 14.582031 C 47.898438 14.207031 48.203125 13.902344 48.578125 13.902344 C 48.953125 13.902344 49.261719 14.207031 49.261719 14.582031 C 49.261719 14.960938 48.953125 15.265625 48.578125 15.265625 Z M 48.578125 14.183594 C 48.359375 14.183594 48.179688 14.363281 48.179688 14.582031 C 48.179688 14.804688 48.359375 14.984375 48.578125 14.984375 C 48.800781 14.984375 48.980469 14.804688 48.980469 14.582031 C 48.980469 14.363281 48.800781 14.183594 48.578125 14.183594 Z M 48.578125 14.183594 " fill-opacity="1" fill-rule="nonzero"/><path fill="#ffce00" d="M 49.4375 29.039062 C 48.886719 29.039062 48.4375 28.59375 48.4375 28.042969 C 48.4375 27.492188 48.886719 27.042969 49.4375 27.042969 C 49.988281 27.042969 50.4375 27.492188 50.4375 28.042969 C 50.4375 28.59375 49.988281 29.039062 49.4375 29.039062 Z M 49.4375 27.324219 C 49.042969 27.324219 48.71875 27.644531 48.71875 28.042969 C 48.71875 28.4375 49.039062 28.761719 49.4375 28.761719 C 49.832031 28.761719 50.15625 28.4375 50.15625 28.042969 C 50.15625 27.644531 49.832031 27.324219 49.4375 27.324219 Z M 49.4375 27.324219 " fill-opacity="1" fill-rule="nonzero"/><path fill="#ffce00" d="M 43.160156 15.457031 C 42.679688 15.457031 42.285156 15.066406 42.285156 14.582031 C 42.285156 14.101562 42.679688 13.710938 43.160156 13.710938 C 43.640625 13.710938 44.03125 14.101562 44.03125 14.582031 C 44.03125 15.066406 43.640625 15.457031 43.160156 15.457031 Z M 43.160156 13.992188 C 42.832031 13.992188 42.566406 14.257812 42.566406 14.582031 C 42.566406 14.910156 42.832031 15.175781 43.160156 15.175781 C 43.488281 15.175781 43.753906 14.910156 43.753906 14.582031 C 43.753906 14.257812 43.488281 13.992188 43.160156 13.992188 Z M 43.160156 13.992188 " fill-opacity="1" fill-rule="nonzero"/><path fill="#ffce00" d="M 38.316406 18.75 C 38.277344 18.75 38.242188 18.734375 38.214844 18.703125 C 38.160156 18.648438 38.164062 18.558594 38.21875 18.507812 L 39.730469 17.09375 C 39.789062 17.039062 39.878906 17.042969 39.929688 17.097656 C 39.984375 17.15625 39.980469 17.246094 39.921875 17.296875 L 38.410156 18.710938 C 38.382812 18.734375 38.351562 18.75 38.316406 18.75 Z M 38.316406 18.75 " fill-opacity="1" fill-rule="nonzero"/><path fill="#ffce00" d="M 39.828125 18.75 C 39.792969 18.75 39.753906 18.734375 39.726562 18.707031 L 38.214844 17.160156 C 38.164062 17.101562 38.164062 17.015625 38.21875 16.960938 C 38.273438 16.90625 38.363281 16.90625 38.417969 16.964844 L 39.929688 18.511719 C 39.980469 18.566406 39.980469 18.65625 39.925781 18.710938 C 39.898438 18.734375 39.863281 18.75 39.828125 18.75 Z M 39.828125 18.75 " fill-opacity="1" fill-rule="nonzero"/><g clip-path="url(#dc041e1f9a)"><path fill="#ffce00" d="M 52.660156 23.78125 L 52.796875 22.980469 L 52.214844 22.417969 L 53.019531 22.300781 L 53.378906 21.574219 L 53.738281 22.300781 L 54.539062 22.417969 L 53.957031 22.980469 L 54.09375 23.78125 L 53.378906 23.40625 Z M 53.378906 23.085938 L 53.722656 23.269531 L 53.65625 22.882812 L 53.9375 22.613281 L 53.550781 22.554688 L 53.378906 22.207031 L 53.203125 22.554688 L 52.816406 22.613281 L 53.097656 22.882812 L 53.03125 23.269531 Z M 53.378906 23.085938 " fill-opacity="1" fill-rule="nonzero"/></g><g clip-path="url(#a4ac84d55c)"><path fill="#ffce00" d="M 38.605469 13.136719 L 37.886719 12.761719 L 37.167969 13.136719 L 37.304688 12.335938 L 36.726562 11.769531 L 37.527344 11.65625 L 37.886719 10.929688 L 38.246094 11.65625 L 39.046875 11.769531 L 38.46875 12.335938 Z M 37.886719 12.445312 L 38.234375 12.625 L 38.167969 12.242188 L 38.445312 11.96875 L 38.058594 11.910156 L 37.886719 11.5625 L 37.714844 11.910156 L 37.328125 11.96875 L 37.605469 12.242188 L 37.539062 12.625 Z M 37.886719 12.445312 " fill-opacity="1" fill-rule="nonzero"/></g><g fill="#000000" fill-opacity="1"><g transform="translate(0.935094, 55.322148)"><g><path d="M 2.453125 -5.9375 L 2.453125 -4.4375 L 4.84375 -4.4375 L 4.84375 -3.0625 L 2.453125 -3.0625 L 2.453125 -1.4375 L 5.171875 -1.4375 L 5.171875 0 L 0.65625 0 L 0.65625 -7.375 L 5.171875 -7.375 L 5.171875 -5.9375 Z M 2.453125 -5.9375 "/></g></g></g><g fill="#000000" fill-opacity="1"><g transform="translate(9.652769, 55.322148)"><g><path d="M 5.234375 -1.296875 L 2.484375 -1.296875 L 2.046875 0 L 0.171875 0 L 2.828125 -7.375 L 4.90625 -7.375 L 7.578125 0 L 5.6875 0 Z M 4.78125 -2.6875 L 3.859375 -5.390625 L 2.96875 -2.6875 Z M 4.78125 -2.6875 "/></g></g></g><g fill="#000000" fill-opacity="1"><g transform="translate(20.429069, 55.322148)"><g><path d="M 3.3125 0.078125 C 2.78125 0.078125 2.300781 -0.0078125 1.875 -0.1875 C 1.445312 -0.363281 1.101562 -0.625 0.84375 -0.96875 C 0.59375 -1.3125 0.457031 -1.722656 0.4375 -2.203125 L 2.359375 -2.203125 C 2.378906 -1.929688 2.46875 -1.722656 2.625 -1.578125 C 2.789062 -1.429688 3.003906 -1.359375 3.265625 -1.359375 C 3.535156 -1.359375 3.742188 -1.421875 3.890625 -1.546875 C 4.046875 -1.671875 4.125 -1.84375 4.125 -2.0625 C 4.125 -2.238281 4.0625 -2.382812 3.9375 -2.5 C 3.820312 -2.625 3.671875 -2.722656 3.484375 -2.796875 C 3.304688 -2.878906 3.054688 -2.96875 2.734375 -3.0625 C 2.253906 -3.207031 1.863281 -3.351562 1.5625 -3.5 C 1.257812 -3.65625 1 -3.875 0.78125 -4.15625 C 0.570312 -4.445312 0.46875 -4.820312 0.46875 -5.28125 C 0.46875 -5.96875 0.710938 -6.503906 1.203125 -6.890625 C 1.703125 -7.273438 2.351562 -7.46875 3.15625 -7.46875 C 3.96875 -7.46875 4.617188 -7.273438 5.109375 -6.890625 C 5.609375 -6.503906 5.875 -5.960938 5.90625 -5.265625 L 3.96875 -5.265625 C 3.957031 -5.503906 3.867188 -5.691406 3.703125 -5.828125 C 3.546875 -5.960938 3.34375 -6.03125 3.09375 -6.03125 C 2.875 -6.03125 2.695312 -5.972656 2.5625 -5.859375 C 2.425781 -5.742188 2.359375 -5.578125 2.359375 -5.359375 C 2.359375 -5.128906 2.46875 -4.945312 2.6875 -4.8125 C 2.914062 -4.675781 3.269531 -4.53125 3.75 -4.375 C 4.226562 -4.21875 4.613281 -4.066406 4.90625 -3.921875 C 5.207031 -3.773438 5.460938 -3.5625 5.671875 -3.28125 C 5.890625 -3 6 -2.632812 6 -2.1875 C 6 -1.769531 5.890625 -1.390625 5.671875 -1.046875 C 5.460938 -0.703125 5.15625 -0.425781 4.75 -0.21875 C 4.34375 -0.0195312 3.863281 0.078125 3.3125 0.078125 Z M 3.3125 0.078125 "/></g></g></g><g fill="#000000" fill-opacity="1"><g transform="translate(29.923977, 55.322148)"><g><path d="M 6.96875 -7.375 L 4.421875 -2.4375 L 4.421875 0 L 2.625 0 L 2.625 -2.4375 L 0.078125 -7.375 L 2.109375 -7.375 L 3.53125 -4.28125 L 4.953125 -7.375 Z M 6.96875 -7.375 "/></g></g></g><g fill="#000000" fill-opacity="1"><g transform="translate(40.00743, 55.322148)"><g/></g></g><g fill="#000000" fill-opacity="1"><g transform="translate(45.269537, 55.322148)"><g/></g></g><g fill="#ffce00" fill-opacity="1"><g transform="translate(4.830762, 63.098737)"><g><path d="M 1.921875 -0.574219 L 0.890625 -0.574219 L 0.890625 -1.15625 L 1.878906 -1.15625 L 1.878906 -1.730469 L 0.890625 -1.730469 L 0.890625 -2.300781 L 1.921875 -2.300781 L 1.921875 -2.878906 L 0.253906 -2.878906 L 0.253906 0 L 1.921875 0 Z M 1.921875 -0.574219 "/></g></g></g><g fill="#ffce00" fill-opacity="1"><g transform="translate(9.909499, 63.098737)"><g><path d="M 1.820312 -1.101562 L 1.09375 -1.101562 L 1.457031 -2.125 Z M 2.894531 0 L 1.726562 -2.878906 L 1.1875 -2.878906 L 0.0195312 0 L 0.703125 0 L 0.910156 -0.578125 L 2.007812 -0.578125 L 2.214844 0 Z M 2.894531 0 "/></g></g></g><g fill="#ffce00" fill-opacity="1"><g transform="translate(15.728884, 63.098737)"><g><path d="M 1.371094 -0.449219 C 1.058594 -0.449219 0.789062 -0.605469 0.769531 -0.949219 L 0.128906 -0.949219 C 0.132812 -0.246094 0.710938 0.0664062 1.347656 0.0664062 C 1.933594 0.0664062 2.539062 -0.183594 2.539062 -0.859375 C 2.539062 -1.957031 0.875 -1.585938 0.875 -2.097656 C 0.875 -2.316406 1.125 -2.398438 1.304688 -2.398438 C 1.621094 -2.398438 1.792969 -2.300781 1.828125 -2 L 2.441406 -2 C 2.421875 -2.65625 1.886719 -2.921875 1.296875 -2.921875 C 0.769531 -2.921875 0.21875 -2.640625 0.21875 -2.046875 C 0.21875 -0.984375 1.882812 -1.347656 1.882812 -0.789062 C 1.882812 -0.527344 1.570312 -0.449219 1.371094 -0.449219 Z M 1.371094 -0.449219 "/></g></g></g><g fill="#ffce00" fill-opacity="1"><g transform="translate(21.298568, 63.098737)"><g><path d="M 1.097656 0 L 1.730469 0 L 1.730469 -1.375 L 2.792969 -2.878906 L 2.035156 -2.878906 L 1.414062 -1.882812 L 0.792969 -2.878906 L 0.0351562 -2.878906 L 1.097656 -1.375 Z M 1.097656 0 "/></g></g></g><g fill="#000000" fill-opacity="1"><g transform="translate(27.033633, 63.098737)"><g/></g></g><g fill="#000000" fill-opacity="1"><g transform="translate(30.995041, 63.098737)"><g><path d="M 1.371094 -0.449219 C 1.058594 -0.449219 0.789062 -0.605469 0.769531 -0.949219 L 0.128906 -0.949219 C 0.132812 -0.246094 0.710938 0.0664062 1.347656 0.0664062 C 1.933594 0.0664062 2.539062 -0.183594 2.539062 -0.859375 C 2.539062 -1.957031 0.875 -1.585938 0.875 -2.097656 C 0.875 -2.316406 1.125 -2.398438 1.304688 -2.398438 C 1.621094 -2.398438 1.792969 -2.300781 1.828125 -2 L 2.441406 -2 C 2.421875 -2.65625 1.886719 -2.921875 1.296875 -2.921875 C 0.769531 -2.921875 0.21875 -2.640625 0.21875 -2.046875 C 0.21875 -0.984375 1.882812 -1.347656 1.882812 -0.789062 C 1.882812 -0.527344 1.570312 -0.449219 1.371094 -0.449219 Z M 1.371094 -0.449219 "/></g></g></g><g fill="#000000" fill-opacity="1"><g transform="translate(36.564725, 63.098737)"><g><path d="M 2.476562 -1.441406 C 2.476562 -1 2.074219 -0.59375 1.628906 -0.59375 C 1.183594 -0.59375 0.78125 -1 0.78125 -1.441406 C 0.78125 -1.886719 1.183594 -2.289062 1.628906 -2.289062 C 2.074219 -2.289062 2.476562 -1.886719 2.476562 -1.441406 Z M 3.109375 -1.4375 C 3.109375 -2.234375 2.425781 -2.921875 1.628906 -2.921875 C 0.832031 -2.921875 0.148438 -2.234375 0.148438 -1.4375 C 0.148438 -0.644531 0.832031 0.0429688 1.628906 0.0429688 C 2.425781 0.0429688 3.109375 -0.644531 3.109375 -1.4375 Z M 3.109375 -1.4375 "/></g></g></g><g fill="#000000" fill-opacity="1"><g transform="translate(42.726929, 63.098737)"><g><path d="M 0.253906 0 L 1.921875 0 L 1.921875 -0.574219 L 0.890625 -0.574219 L 0.890625 -2.878906 L 0.253906 -2.878906 Z M 0.253906 0 "/></g></g></g><g fill="#000000" fill-opacity="1"><g transform="translate(47.699859, 63.098737)"><g><path d="M 1.933594 -2.878906 L 1.933594 -1.214844 C 1.933594 -0.816406 1.816406 -0.59375 1.378906 -0.59375 C 0.949219 -0.59375 0.824219 -0.816406 0.824219 -1.214844 L 0.824219 -2.878906 L 0.191406 -2.878906 L 0.191406 -1.121094 C 0.191406 -0.355469 0.628906 0.0429688 1.378906 0.0429688 C 2.128906 0.0429688 2.570312 -0.355469 2.570312 -1.121094 L 2.570312 -2.878906 Z M 1.933594 -2.878906 "/></g></g></g><g fill="#000000" fill-opacity="1"><g transform="translate(53.362651, 63.098737)"><g><path d="M 1.476562 -2.300781 L 2.296875 -2.300781 L 2.296875 -2.878906 L 0.0195312 -2.878906 L 0.0195312 -2.300781 L 0.84375 -2.300781 L 0.84375 0 L 1.476562 0 Z M 1.476562 -2.300781 "/></g></g></g><g fill="#000000" fill-opacity="1"><g transform="translate(58.585288, 63.098737)"><g><path d="M 0.890625 0 L 0.890625 -2.878906 L 0.253906 -2.878906 L 0.253906 0 Z M 0.890625 0 "/></g></g></g><g fill="#000000" fill-opacity="1"><g transform="translate(62.631343, 63.098737)"><g><path d="M 2.476562 -1.441406 C 2.476562 -1 2.074219 -0.59375 1.628906 -0.59375 C 1.183594 -0.59375 0.78125 -1 0.78125 -1.441406 C 0.78125 -1.886719 1.183594 -2.289062 1.628906 -2.289062 C 2.074219 -2.289062 2.476562 -1.886719 2.476562 -1.441406 Z M 3.109375 -1.4375 C 3.109375 -2.234375 2.425781 -2.921875 1.628906 -2.921875 C 0.832031 -2.921875 0.148438 -2.234375 0.148438 -1.4375 C 0.148438 -0.644531 0.832031 0.0429688 1.628906 0.0429688 C 2.425781 0.0429688 3.109375 -0.644531 3.109375 -1.4375 Z M 3.109375 -1.4375 "/></g></g></g><g fill="#000000" fill-opacity="1"><g transform="translate(68.793549, 63.098737)"><g><path d="M 2.515625 0 L 2.515625 -2.878906 L 1.878906 -2.878906 L 1.878906 -1.082031 L 0.890625 -2.878906 L 0.253906 -2.878906 L 0.253906 0 L 0.890625 0 L 0.890625 -1.792969 L 1.878906 0 Z M 2.515625 0 "/></g></g></g><path stroke-linecap="butt" transform="matrix(0.875264, 0, 0, 0.875264, 44.2182, 45.694243)" fill="none" stroke-linejoin="miter" d="M 6.766443 6.677778 C 7.252903 6.784888 7.645642 7.025887 7.940196 7.4097 C 8.239213 7.78905 8.38649 8.221955 8.38649 8.708415 C 8.38649 9.413559 8.141028 9.971427 7.650105 10.382017 C 7.154719 10.792607 6.471889 10.997903 5.588227 10.997903 L 1.665304 10.997903 L 1.665304 2.576337 L 5.458802 2.576337 C 6.315686 2.576337 6.985127 2.772707 7.467125 3.165445 C 7.949122 3.558184 8.194584 4.089273 8.194584 4.758714 C 8.194584 5.2541 8.065158 5.669154 7.801845 5.994948 C 7.542995 6.325206 7.199348 6.552816 6.766443 6.677778 Z M 3.718256 5.986022 L 5.061601 5.986022 C 5.396321 5.986022 5.655171 5.910152 5.833689 5.762876 C 6.016669 5.611136 6.105928 5.396915 6.105928 5.106824 C 6.105928 4.821195 6.016669 4.598049 5.833689 4.450772 C 5.655171 4.299032 5.396321 4.218699 5.061601 4.218699 L 3.718256 4.218699 Z M 5.226729 9.346615 C 5.574839 9.346615 5.842615 9.266282 6.030058 9.11008 C 6.217502 8.953877 6.311223 8.726267 6.311223 8.431713 C 6.311223 8.137159 6.213039 7.905086 6.012207 7.735494 C 5.8203 7.570366 5.548061 7.48557 5.204415 7.48557 L 3.718256 7.48557 L 3.718256 9.346615 Z M 15.955634 2.576337 L 15.955634 7.614995 C 15.955634 8.119307 16.080596 8.507583 16.330521 8.784285 C 16.575982 9.052061 16.941943 9.190412 17.423941 9.190412 C 17.901475 9.190412 18.271899 9.052061 18.526287 8.784285 C 18.780674 8.507583 18.910099 8.119307 18.910099 7.614995 L 18.910099 2.576337 L 20.963051 2.576337 L 20.963051 7.606069 C 20.963051 8.355843 20.802385 8.994043 20.481054 9.511744 C 20.159722 10.029445 19.73128 10.422184 19.191265 10.68996 C 18.651249 10.953273 18.048752 11.087161 17.388237 11.087161 C 16.723259 11.087161 16.129689 10.953273 15.603062 10.694423 C 15.080898 10.435572 14.665845 10.042834 14.362365 9.516207 C 14.058885 8.994043 13.907145 8.355843 13.907145 7.606069 L 13.907145 2.576337 Z M 33.994832 2.576337 L 31.07607 8.217492 L 31.07607 10.997903 L 29.027582 10.997903 L 29.027582 8.217492 L 26.10882 2.576337 L 28.438474 2.576337 L 30.067446 6.106522 L 31.687493 2.576337 Z M 33.994832 2.576337 " stroke="#000000" stroke-width="1.14" stroke-opacity="1" stroke-miterlimit="4"/><g fill="#ffce00" fill-opacity="1"><g transform="translate(45.025084, 55.322148)"><g><path d="M 5.109375 -3.78125 C 5.535156 -3.6875 5.878906 -3.472656 6.140625 -3.140625 C 6.398438 -2.804688 6.53125 -2.425781 6.53125 -2 C 6.53125 -1.382812 6.3125 -0.894531 5.875 -0.53125 C 5.445312 -0.175781 4.847656 0 4.078125 0 L 0.65625 0 L 0.65625 -7.375 L 3.96875 -7.375 C 4.71875 -7.375 5.300781 -7.203125 5.71875 -6.859375 C 6.144531 -6.515625 6.359375 -6.046875 6.359375 -5.453125 C 6.359375 -5.023438 6.242188 -4.664062 6.015625 -4.375 C 5.796875 -4.09375 5.492188 -3.894531 5.109375 -3.78125 Z M 2.453125 -4.390625 L 3.625 -4.390625 C 3.914062 -4.390625 4.140625 -4.453125 4.296875 -4.578125 C 4.453125 -4.710938 4.53125 -4.90625 4.53125 -5.15625 C 4.53125 -5.40625 4.453125 -5.597656 4.296875 -5.734375 C 4.140625 -5.867188 3.914062 -5.9375 3.625 -5.9375 L 2.453125 -5.9375 Z M 3.765625 -1.453125 C 4.066406 -1.453125 4.300781 -1.519531 4.46875 -1.65625 C 4.632812 -1.789062 4.71875 -1.988281 4.71875 -2.25 C 4.71875 -2.507812 4.628906 -2.710938 4.453125 -2.859375 C 4.285156 -3.003906 4.050781 -3.078125 3.75 -3.078125 L 2.453125 -3.078125 L 2.453125 -1.453125 Z M 3.765625 -1.453125 "/></g></g></g><g fill="#ffce00" fill-opacity="1"><g transform="translate(55.769871, 55.322148)"><g><path d="M 2.421875 -7.375 L 2.421875 -2.96875 C 2.421875 -2.519531 2.523438 -2.175781 2.734375 -1.9375 C 2.953125 -1.695312 3.273438 -1.578125 3.703125 -1.578125 C 4.117188 -1.578125 4.4375 -1.695312 4.65625 -1.9375 C 4.882812 -2.175781 5 -2.519531 5 -2.96875 L 5 -7.375 L 6.796875 -7.375 L 6.796875 -2.96875 C 6.796875 -2.3125 6.65625 -1.753906 6.375 -1.296875 C 6.09375 -0.847656 5.710938 -0.503906 5.234375 -0.265625 C 4.765625 -0.0351562 4.242188 0.078125 3.671875 0.078125 C 3.085938 0.078125 2.566406 -0.0351562 2.109375 -0.265625 C 1.648438 -0.492188 1.285156 -0.835938 1.015625 -1.296875 C 0.753906 -1.753906 0.625 -2.3125 0.625 -2.96875 L 0.625 -7.375 Z M 2.421875 -7.375 "/></g></g></g><g fill="#ffce00" fill-opacity="1"><g transform="translate(66.997804, 55.322148)"><g><path d="M 6.96875 -7.375 L 4.421875 -2.4375 L 4.421875 0 L 2.625 0 L 2.625 -2.4375 L 0.078125 -7.375 L 2.109375 -7.375 L 3.53125 -4.28125 L 4.953125 -7.375 Z M 6.96875 -7.375 "/></g></g></g></svg>